<svg viewBox="0 0 1010 224" xmlns="http://www.w3.org/2000/svg"><g fill="none" fill-rule="evenodd"><g fill="#404040"><path d="m56.4054744 12h87.1890516c19.613412 0 26.725709 2.0421634 33.896079 5.8769195 7.170371 3.834756 12.797719 9.4621047 16.632476 16.632475 3.834756 7.1703704 5.876919 14.2826676 5.876919 33.8960799v87.1890516c0 19.613412-2.042163 26.725709-5.876919 33.896079-3.834757 7.170371-9.462105 12.797719-16.632476 16.632476-7.17037 3.834756-14.282667 5.876919-33.896079 5.876919h-87.1890516c-19.6134123 0-26.7257095-2.042163-33.8960799-5.876919-7.1703703-3.834757-12.79771898-9.462105-16.63247502-16.632476-3.83475603-7.17037-5.87691948-14.282667-5.87691948-33.896079v-87.1890516c0-19.6134123 2.04216345-26.7257095 5.87691948-33.8960799 3.83475604-7.1703703 9.46210472-12.797719 16.63247502-16.632475 7.1703704-3.8347561 14.2826676-5.8769195 33.8960799-5.8769195z" fill-opacity=".25"/><path d="m326.405474 12h87.189052c19.613412 0 26.725709 2.0421634 33.896079 5.8769195 7.170371 3.834756 12.797719 9.4621047 16.632476 16.632475 3.834756 7.1703704 5.876919 14.2826676 5.876919 33.8960799v87.1890516c0 19.613412-2.042163 26.725709-5.876919 33.896079-3.834757 7.170371-9.462105 12.797719-16.632476 16.632476-7.17037 3.834756-14.282667 5.876919-33.896079 5.876919h-87.189052c-19.613412 0-26.725709-2.042163-33.896079-5.876919-7.170371-3.834757-12.797719-9.462105-16.632476-16.632476-3.834756-7.17037-5.876919-14.282667-5.876919-33.896079v-87.1890516c0-19.6134123 2.042163-26.7257095 5.876919-33.8960799 3.834757-7.1703703 9.462105-12.797719 16.632476-16.632475 7.17037-3.8347561 14.282667-5.8769195 33.896079-5.8769195z" fill-opacity=".5"/><path d="m720.320199 12.5860403c-7.768942-4.15487564-15.413078-6.5860403-36.725673-6.5860403l-87.845241.00075607c-20.806452.04825299-28.377332 2.47147661-36.069484 6.58528423-8.231447 4.4022261-14.691535 10.862314-19.093761 19.0937611-4.154875 7.7689419-6.58604 15.4130774-6.58604 36.725673l.000756 87.8452406c.048253 20.806452 2.471477 28.377332 6.585284 36.069484 4.402226 8.231447 10.862314 14.691535 19.093761 19.093761 7.768942 4.154875 15.413078 6.58604 36.725673 6.58604h87.189052c21.312595 0 28.956731-2.431165 36.725673-6.58604 8.231447-4.402226 14.691535-10.862314 19.093761-19.093761 4.154875-7.768942 6.58604-15.413078 6.58604-36.725673v-87.1890516c0-21.3125956-2.431165-28.9567311-6.58604-36.725673-4.402226-8.2314471-10.862314-14.691535-19.093761-19.0937611z" fill-opacity=".75" fill-rule="evenodd" stroke="#3c9bfe" stroke-width="12"/></g><path d="m717.962204 16.9951063c-7.270132-3.8881093-14.471069-5.9951063-34.367678-5.9951063l-87.838228.000756c-19.404441.0455057-26.527706 2.1486701-33.718502 5.9943503-7.347217 3.9293344-13.113355 9.6954729-17.04269 17.0426894-3.888109 7.2701323-5.995106 14.4710692-5.995106 34.3676787l.000756 87.8382276c.045506 19.404441 2.14867 26.527706 5.99435 33.718502 3.929335 7.347217 9.695473 13.113355 17.04269 17.04269 7.270132 3.888109 14.471069 5.995106 34.367678 5.995106h87.189052c19.896609 0 27.097546-2.106997 34.367678-5.995106 7.347217-3.929335 13.113355-9.695473 17.04269-17.04269 3.888109-7.270132 5.995106-14.471069 5.995106-34.367678v-87.1890516c0-19.8966095-2.106997-27.0975464-5.995106-34.3676787-3.929335-7.3472165-9.695473-13.113355-17.04269-17.0426894z" stroke="#fff" stroke-width="2"/><path d="m866.405474 12h87.189052c19.613412 0 26.725709 2.0421634 33.896079 5.8769195 7.170371 3.834756 12.797715 9.4621047 16.632475 16.632475 3.83476 7.1703704 5.87692 14.2826676 5.87692 33.8960799v87.1890516c0 19.613412-2.04216 26.725709-5.87692 33.896079-3.83476 7.170371-9.462104 12.797719-16.632475 16.632476-7.17037 3.834756-14.282667 5.876919-33.896079 5.876919h-87.189052c-19.613412 0-26.725709-2.042163-33.896079-5.876919-7.170371-3.834757-12.797719-9.462105-16.632476-16.632476-3.834756-7.17037-5.876919-14.282667-5.876919-33.896079v-87.1890516c0-19.6134123 2.042163-26.7257095 5.876919-33.8960799 3.834757-7.1703703 9.462105-12.797719 16.632476-16.632475 7.17037-3.8347561 14.282667-5.8769195 33.896079-5.8769195z" fill="#404040" fill-opacity=".5"/></g></svg>